<?xml version="1.0" standalone="no"?>
<!DOCTYPE svg PUBLIC "-//W3C//DTD SVG 20010904//EN"
 "http://www.w3.org/TR/2001/REC-SVG-20010904/DTD/svg10.dtd">
<svg version="1.0" xmlns="http://www.w3.org/2000/svg"
 width="406.000000pt" height="406.000000pt" viewBox="0 0 406.000000 406.000000"
 preserveAspectRatio="xMidYMid meet">
<metadata>
Created by potrace 1.11, written by Peter Selinger 2001-2013
</metadata>
<g transform="translate(0.000000,406.000000) scale(0.100000,-0.100000)"
fill="#000000" stroke="none">
<path d="M37 4010 l-37 -49 0 -474 0 -474 73 -7 c147 -14 240 -62 274 -143 24
-59 16 -72 -20 -32 -41 46 -58 58 -97 69 -32 9 -32 9 -15 -10 21 -24 14 -25
-40 -6 -22 8 -71 17 -108 21 l-67 7 0 -221 0 -221 118 0 c114 0 611 18 662 24
22 2 26 8 30 57 3 30 11 64 18 76 14 25 59 37 93 25 23 -9 22 -10 -17 -21 -59
-16 -76 -39 -68 -91 4 -23 18 -54 31 -69 31 -33 93 -129 93 -144 0 -6 -28 15
-61 48 -38 37 -63 55 -66 48 -3 -7 -13 -13 -23 -13 -10 0 -22 -5 -25 -10 -4
-7 -11 -7 -18 -2 -11 8 -68 8 -152 -2 -16 -1 -43 -4 -58 -4 -16 -1 -25 -6 -22
-12 3 -5 1 -10 -4 -10 -6 0 -11 5 -11 10 0 15 -48 12 -53 -2 -3 -10 -7 -10
-20 1 -13 10 -20 11 -30 2 -8 -6 -16 -9 -18 -6 -9 8 -384 3 -393 -6 -4 -3 -5
-249 -4 -547 l3 -540 51 23 c72 33 183 54 326 62 68 3 132 12 143 18 11 7 33
16 49 19 16 4 43 18 61 31 33 26 54 23 32 -3 -10 -12 -9 -16 3 -20 19 -7 -66
-32 -107 -32 -21 0 -41 -8 -55 -22 -28 -28 -76 -46 -143 -54 -65 -8 -93 -23
-45 -24 30 -1 24 -5 -42 -26 -50 -17 -78 -31 -80 -42 -3 -14 -8 -12 -31 11
-23 22 -32 25 -48 17 -10 -6 -19 -13 -19 -16 0 -3 6 -2 12 2 7 4 6 0 -2 -8
-16 -15 -70 -41 -70 -33 0 2 12 11 26 18 22 12 24 15 10 20 -10 4 -15 3 -11
-3 3 -6 1 -10 -6 -10 -17 0 -59 -48 -59 -68 0 -12 3 -13 8 -5 15 24 134 75
159 68 22 -5 33 -35 13 -35 -5 0 -10 -4 -10 -10 0 -5 9 -10 20 -10 10 0 24 -9
30 -21 13 -23 4 -42 -9 -21 -8 13 -63 17 -156 10 l-50 -4 -3 -557 -2 -557 683
0 683 0 -4 87 c-4 112 -6 117 -22 68 -20 -63 -31 -71 -47 -36 -11 21 -26 32
-58 41 -24 7 -46 19 -49 27 -3 8 -9 59 -13 114 -4 75 -9 97 -18 89 -8 -7 -27
-5 -59 6 -26 9 -49 15 -51 13 -2 -2 -6 -20 -10 -39 -6 -35 -6 -35 42 -50 46
-15 48 -16 45 -50 -2 -19 -7 -38 -11 -42 -9 -10 -136 64 -161 94 -11 13 -31
38 -45 55 -15 18 -51 47 -81 65 -46 28 -75 61 -62 73 1 2 26 13 55 24 l52 20
31 -44 c17 -25 37 -60 45 -78 l14 -32 1 56 0 56 55 -9 c29 -4 66 -13 80 -18
15 -6 64 -10 110 -10 66 0 84 -3 89 -16 3 -9 6 -57 7 -107 l1 -92 23 70 c13
39 24 78 24 88 1 22 16 22 40 -2 12 -12 21 -40 25 -83 10 -91 22 -102 30 -28
7 58 9 62 29 55 12 -3 43 -9 68 -12 l47 -5 -14 -57 c-7 -31 -30 -109 -51 -174
l-39 -117 173 0 173 0 -6 33 c-3 17 -13 60 -21 95 -16 66 -11 95 7 47 9 -23
13 -25 25 -15 10 9 15 9 15 1 0 -6 -5 -11 -10 -11 -7 0 -9 -24 -6 -67 3 -38 5
-71 6 -75 0 -13 58 -9 63 5 4 10 6 10 6 0 1 -18 21 -16 21 1 0 7 12 21 26 31
25 16 26 16 19 -4 -5 -16 -2 -21 13 -21 11 0 26 7 33 17 14 16 23 128 14 170
-6 24 -33 31 -52 12 -8 -8 -13 -8 -17 0 -11 17 -37 13 -53 -6 -12 -15 -14 -15
-10 -2 4 13 -2 15 -40 9 l-45 -7 63 61 c34 34 77 72 94 86 45 35 131 139 197
240 78 119 95 155 112 236 15 72 35 133 63 189 l14 30 -3 -37 c-6 -61 9 -32
21 40 6 37 12 81 14 97 2 17 4 9 5 -20 1 -27 -3 -70 -8 -95 -4 -25 -7 -47 -5
-48 6 -6 25 69 32 121 3 26 9 47 14 47 4 0 18 -28 32 -62 13 -35 29 -62 35
-61 7 2 34 -19 62 -47 41 -40 50 -56 50 -84 0 -52 15 -83 74 -152 l53 -62 6
-128 c4 -71 11 -142 15 -159 l8 -30 80 0 c74 0 79 1 82 23 4 28 16 28 29 0 6
-15 19 -21 40 -22 35 -1 34 3 -19 82 -26 38 -29 49 -24 87 8 53 40 102 85 132
72 49 130 21 172 -82 15 -38 28 -80 28 -92 1 -13 5 -23 9 -23 4 0 18 -20 30
-45 12 -25 28 -45 36 -45 11 0 1 30 -36 107 -42 90 -98 220 -98 229 0 1 27 11
60 22 l60 21 14 -22 c8 -12 28 -49 45 -82 l31 -60 -5 85 c-4 47 -9 92 -11 102
-3 11 11 25 52 47 32 17 64 31 71 31 10 0 13 -27 13 -122 l0 -121 39 -34 c33
-28 42 -43 51 -91 22 -114 -2 -102 178 -96 86 3 185 7 220 10 l62 6 0 509 c0
333 -3 509 -10 509 -5 0 -10 7 -10 15 0 7 -6 18 -13 22 -7 4 -21 19 -30 33
-13 19 -17 21 -17 7 0 -9 5 -17 12 -17 6 0 8 -3 5 -6 -4 -4 -14 -1 -23 6 -13
12 -17 11 -25 -1 -8 -12 -10 -12 -19 1 -5 8 -15 15 -22 16 -7 0 -23 2 -35 2
-13 1 -23 8 -23 16 0 9 -7 12 -20 9 -11 -3 -20 0 -20 6 0 8 -6 9 -18 2 -43
-23 -60 32 -30 99 28 64 67 98 186 161 122 66 141 92 26 39 -37 -18 -76 -33
-87 -36 -12 -2 -56 -24 -99 -49 -43 -25 -82 -45 -88 -45 -5 0 -10 -4 -10 -10
0 -5 -4 -10 -9 -10 -5 0 -3 14 5 30 9 16 22 30 30 30 8 0 13 4 10 9 -3 5 1 12
10 15 8 3 12 11 8 17 -4 7 0 9 13 5 24 -8 91 26 85 43 -3 9 2 11 19 6 19 -5
21 -4 9 5 -10 8 -11 13 -4 16 6 3 20 12 30 20 19 15 19 16 0 10 -16 -6 -17 -4
-6 9 16 19 36 19 44 0 9 -24 33 -17 50 15 8 17 11 30 6 30 -4 0 -10 -7 -14
-15 -3 -8 -13 -15 -23 -15 -15 1 -14 4 6 21 14 11 37 23 53 26 15 3 33 12 40
21 11 14 10 15 -7 8 -11 -4 -24 -9 -30 -10 -38 -9 -102 -31 -110 -38 -12 -11
-25 -10 -25 2 0 6 7 10 15 10 8 0 15 5 15 10 0 13 4 13 -77 -6 -37 -9 -115
-17 -173 -18 -104 -1 -107 0 -164 34 -51 31 -116 105 -116 132 0 4 -4 8 -9 8
-5 0 -11 -18 -15 -40 -3 -22 -10 -40 -15 -40 -5 0 -12 -12 -16 -27 -5 -20 -8
-24 -15 -13 -5 8 -7 17 -4 21 2 4 6 42 9 85 3 44 7 90 9 104 12 98 19 131 27
136 11 6 12 84 2 84 -5 0 -14 -4 -22 -9 -8 -6 -24 -6 -38 0 -15 5 -23 5 -23
-2 0 -6 -7 -6 -20 1 -11 6 -26 8 -32 4 -6 -4 -52 -9 -102 -11 -49 -1 -94 -7
-100 -13 -5 -5 -27 -10 -47 -10 -20 0 -42 -7 -49 -15 -7 -8 -19 -15 -28 -15
-31 0 -82 -24 -88 -42 -3 -9 -17 -23 -32 -31 -19 -9 -26 -19 -24 -35 2 -13 -3
-25 -13 -28 -10 -4 -13 -13 -9 -26 4 -14 2 -19 -7 -16 -7 2 -28 -10 -46 -28
l-32 -32 -3 31 c-2 18 4 56 14 84 16 50 11 76 -10 50 -10 -12 -26 -69 -27 -97
0 -8 -4 -33 -8 -55 -3 -22 -9 -83 -13 -135 -3 -52 -7 -97 -9 -99 -10 -9 -21
66 -13 83 7 12 6 21 -1 25 -7 5 -7 18 0 45 7 26 7 41 1 45 -7 4 -3 43 9 111
11 58 21 124 24 148 7 73 12 79 78 101 100 33 197 42 450 40 132 0 242 3 246
7 4 5 15 35 25 67 29 95 67 162 96 165 14 2 52 12 85 22 153 49 243 35 417
-63 26 -15 49 -27 52 -27 3 0 5 42 5 94 l-1 94 -51 12 c-29 7 -57 17 -64 22
-7 5 -17 6 -24 3 -6 -4 -63 -9 -126 -10 -147 -3 -170 -20 -36 -28 54 -3 113
-11 131 -17 26 -10 36 -9 49 1 10 9 14 9 10 2 -5 -7 1 -17 14 -23 34 -19 15
-22 -32 -5 -24 8 -90 21 -146 27 -91 11 -108 10 -150 -5 -56 -20 -73 -21 -73
-6 0 6 7 8 16 5 8 -3 13 -2 9 3 -3 5 15 26 39 46 62 51 119 105 115 110 -9 9
-270 15 -286 7 -10 -5 -187 -13 -393 -16 -206 -4 -388 -9 -405 -12 -30 -4 -30
-4 -30 40 0 25 -3 47 -6 51 -4 3 -26 1 -50 -5 -160 -39 -244 -57 -247 -55 -2
2 20 11 47 20 28 9 49 20 46 25 -3 4 8 10 25 12 16 2 27 1 24 -4 -3 -4 1 -8
10 -8 8 0 16 5 18 11 2 7 34 13 78 15 354 12 500 16 728 16 l262 0 0 42 c0 23
7 66 15 96 22 80 58 241 60 272 1 15 13 42 27 61 15 18 36 55 49 81 23 50 103
123 142 130 12 2 45 10 72 16 28 7 69 13 93 14 l42 0 0 123 0 123 -1297 -3
c-714 -2 -1310 -5 -1326 -9 -15 -3 -36 -13 -47 -23 -19 -17 -20 -17 -20 2 0
17 -6 19 -45 17 -37 -2 -50 -9 -71 -33 -15 -18 -31 -28 -37 -24 -15 9 -60 4
-68 -8 -11 -19 -36 3 -49 42 l-13 39 -506 0 -507 0 -37 -50z m1282 6 c-2 -2
-15 -7 -29 -10 l-25 -7 25 15 c21 12 42 14 29 2z m704 -52 c-4 -11 -9 -12 -19
-3 -18 15 -18 14 5 16 14 1 18 -3 14 -13z m-836 -10 c-3 -3 -12 -4 -19 -1 -8
3 -5 6 6 6 11 1 17 -2 13 -5z m418 -14 c3 -5 1 -10 -4 -10 -6 0 -11 5 -11 10
0 6 2 10 4 10 3 0 8 -4 11 -10z m325 1 c0 -5 -7 -12 -16 -15 -14 -5 -15 -4 -4
9 14 17 20 19 20 6z m1053 -8 c14 -8 7 -40 -12 -57 -15 -14 -24 -15 -39 -7
-21 11 -37 55 -26 72 5 9 57 4 77 -8z m-1828 -13 c-3 -5 -11 -10 -16 -10 -6 0
-7 5 -4 10 3 6 11 10 16 10 6 0 7 -4 4 -10z m495 6 c0 -11 -19 -15 -25 -6 -3
5 1 10 9 10 9 0 16 -2 16 -4z m-289 -50 c-7 -8 -22 -11 -38 -8 -25 5 -25 6 -8
13 11 4 28 8 39 8 14 1 16 -2 7 -13z m869 -35 c0 -5 8 -12 18 -14 14 -4 14 -5
1 -6 -9 0 -22 6 -29 14 -9 10 -9 15 -1 15 6 0 11 -4 11 -9z m-1245 -68 c0 -10
-5 -19 -10 -20 -9 -3 -10 2 -6 27 2 18 18 11 16 -7z m-72 -50 c-3 -7 -9 -13
-13 -13 -4 0 -10 6 -13 13 -3 7 3 13 13 13 10 0 16 -6 13 -13z m1127 -133 c10
-3 35 -10 75 -18 110 -23 193 -115 260 -287 19 -49 42 -97 52 -107 18 -20 10
-39 -9 -20 -13 13 -32 16 -25 5 3 -5 -9 -9 -26 -9 -17 -1 -33 -6 -35 -13 -2
-6 -8 -11 -13 -11 -22 0 -119 -54 -116 -64 7 -18 -13 -46 -32 -46 -19 0 -41
-38 -41 -70 0 -10 -6 -21 -12 -24 -7 -3 -3 -3 10 0 33 8 27 -4 -11 -20 -29
-11 -51 -13 -90 -7 -5 0 -7 9 -6 19 5 53 -15 61 -175 68 -206 10 -258 5 -295
-29 -14 -13 -45 -35 -68 -47 -24 -13 -43 -30 -43 -37 0 -7 -5 -12 -11 -10 -6
1 -14 -4 -17 -12 -3 -10 0 -12 11 -8 11 4 13 0 9 -15 -4 -18 -1 -20 26 -16 27
4 31 1 34 -24 3 -16 1 -31 -4 -34 -4 -3 -8 4 -8 15 0 11 -4 23 -10 26 -6 4
-10 -5 -10 -19 0 -19 -7 -27 -24 -32 -26 -6 -50 2 -41 15 2 5 -8 6 -23 3 -24
-5 -26 -4 -13 11 7 10 20 17 27 17 8 0 14 10 14 25 0 14 -4 25 -10 25 -18 0
-10 18 10 23 36 9 24 36 -19 43 -30 5 -38 10 -34 22 5 11 3 13 -6 7 -10 -6
-11 -3 -2 13 6 11 22 23 36 26 31 8 33 23 3 22 -13 -1 -22 4 -21 12 2 6 -4 12
-13 12 -11 0 -14 5 -10 16 5 14 1 16 -22 11 -26 -5 -28 -4 -24 22 2 16 -5 42
-16 63 -20 35 -20 36 -1 31 13 -4 19 0 19 12 0 12 7 16 28 14 44 -4 88 10 113
37 18 20 72 54 85 54 1 0 5 -14 9 -31 5 -21 11 -29 22 -25 12 5 13 0 8 -24 -4
-18 -3 -30 4 -30 15 0 41 42 41 67 0 13 6 23 13 23 8 0 27 28 43 63 22 46 38
66 63 79 19 9 48 31 65 47 18 17 42 31 54 31 27 0 82 48 86 75 2 12 12 21 24
23 12 2 22 6 22 10 0 6 56 8 70 2z m1055 0 c248 -22 372 -25 390 -10 11 9 62
15 108 12 26 -2 28 -5 25 -34 l-3 -33 -180 2 c-99 2 -250 5 -336 7 -121 3
-162 1 -180 -10 -13 -7 -32 -17 -41 -20 -10 -3 -18 -12 -18 -19 0 -7 -6 -18
-14 -24 -11 -9 -18 -5 -36 23 -34 57 -16 85 67 105 52 12 90 13 218 1z m-1455
-265 c-15 -29 -32 -33 -28 -7 3 17 30 44 37 36 2 -2 -2 -15 -9 -29z m-234 -89
c-32 -27 -63 -36 -90 -26 -12 4 -2 10 33 19 28 7 53 17 57 22 3 5 11 9 17 9 7
-1 -1 -11 -17 -24z m-61 4 c-3 -5 -12 -10 -18 -10 -7 0 -6 4 3 10 19 12 23 12
15 0z m-75 -154 c0 -3 -4 -8 -10 -11 -5 -3 -10 -1 -10 4 0 6 5 11 10 11 6 0
10 -2 10 -4z m1115 -25 c-3 -6 -16 -11 -28 -11 -21 0 -21 1 3 13 27 15 36 14
25 -2z m170 -51 c3 -6 -2 -10 -12 -10 -15 0 -16 -2 -3 -10 13 -9 13 -11 0 -20
-8 -5 -20 -10 -27 -10 -7 0 -10 -11 -8 -27 4 -35 62 -165 78 -175 21 -14 -48
-66 -110 -84 -135 -39 -235 -5 -258 88 l-6 24 69 -9 c96 -13 141 -4 153 32 7
20 20 31 47 38 34 10 35 11 9 12 -15 0 -45 -10 -66 -23 -25 -16 -42 -21 -52
-15 -13 8 -12 10 10 13 6 0 19 11 31 24 13 14 32 22 54 22 35 0 36 4 22 67 -7
32 14 69 40 71 13 1 26 -3 29 -8z m34 -52 c16 -52 22 -120 13 -158 -7 -29 -8
-21 -9 40 0 45 -6 90 -16 113 -9 20 -12 37 -7 37 5 0 13 -15 19 -32z m-202 4
c8 -5 -2 -8 -24 -9 -25 -1 -32 2 -22 8 17 11 30 11 46 1z m-202 -22 c-3 -5
-12 -10 -18 -10 -7 0 -6 4 3 10 19 12 23 12 15 0z m100 -70 c3 -5 1 -10 -4
-10 -6 0 -11 5 -11 10 0 6 2 10 4 10 3 0 8 -4 11 -10z m-675 -24 c0 -2 -7 -7
-16 -10 -8 -3 -12 -2 -9 4 6 10 25 14 25 6z m-50 -16 c0 -5 -10 -10 -22 -9
-22 0 -22 1 -3 9 11 5 21 9 23 9 1 1 2 -3 2 -9z m753 -5 c1 -6 -16 -11 -38
-12 -34 -2 -37 -1 -17 7 13 6 29 7 34 3 7 -4 8 -1 3 7 -5 8 -3 11 4 9 7 -3 13
-9 14 -14z m-543 -14 c0 -5 -9 -11 -20 -14 -11 -3 -20 -1 -20 3 0 5 8 11 18
13 9 3 18 5 20 6 1 0 2 -3 2 -8z m-380 -5 c0 -2 -11 -6 -25 -8 -13 -3 -22 -1
-19 3 5 9 44 13 44 5z m783 -48 c41 -63 98 -120 123 -124 23 -3 66 -52 61 -68
-2 -6 -12 -13 -23 -15 -10 -2 -31 -16 -47 -32 -19 -21 -37 -29 -61 -29 -19 0
-37 4 -40 9 -10 16 -106 24 -131 11 -31 -16 -75 -5 -75 19 0 26 32 51 59 46
22 -4 23 -2 18 30 -4 26 -2 37 11 45 9 5 12 10 6 10 -14 0 -7 119 8 138 23 28
57 13 91 -40z m1851 43 c11 -4 15 -10 9 -14 -5 -3 -19 0 -29 8 -20 15 -11 18
20 6z m-2274 -106 c0 -5 5 -3 10 5 7 12 12 12 21 3 16 -16 11 -21 -30 -28 -21
-4 -30 -2 -26 5 3 5 1 10 -4 10 -6 0 -11 4 -11 9 0 6 9 9 20 8 11 -1 20 -6 20
-12z m240 -4 c4 -7 5 -24 3 -39 l-4 -27 15 25 c20 33 20 18 1 -20 -10 -20 -23
-30 -38 -30 -16 0 -18 -3 -9 -9 21 -13 -42 -48 -119 -66 -128 -30 -202 -13
-233 52 -9 19 -15 38 -12 40 3 3 33 7 68 10 77 5 184 36 218 63 28 21 96 22
110 1z m619 -73 c1 -15 -8 -43 -20 -62 -22 -37 -33 -47 -23 -21 7 18 -9 19
-37 3 -17 -10 -23 -10 -26 0 -3 6 -9 12 -14 12 -6 0 -22 11 -37 25 -20 19 -22
24 -8 19 15 -6 18 -4 13 9 -4 11 1 18 14 22 11 4 18 12 16 18 -2 7 19 23 47
38 l51 25 12 -30 c6 -17 12 -43 12 -58z m-139 22 c0 -5 -2 -10 -4 -10 -3 0 -8
5 -11 10 -3 6 -1 10 4 10 6 0 11 -4 11 -10z m-980 -9 c0 -5 -10 -11 -22 -13
-14 -2 -22 -12 -25 -27 -5 -36 -10 -36 -15 -1 -4 25 -1 34 16 40 28 12 46 12
46 1z m137 -121 c26 -21 36 -22 128 -17 l100 5 -46 -17 c-31 -11 -44 -21 -41
-30 3 -9 0 -12 -9 -9 -8 4 -22 9 -31 13 -12 5 -18 3 -18 -5 0 -7 -8 -18 -17
-25 -14 -11 -15 -16 -5 -36 l13 -24 -5 23 c-3 17 -1 22 9 18 7 -2 21 2 32 9
10 8 26 15 35 15 9 0 19 6 21 13 4 9 8 8 16 -3 8 -11 7 -18 -4 -26 -8 -6 -15
-16 -15 -23 0 -6 -4 -11 -10 -11 -5 0 -7 7 -4 15 5 11 2 13 -10 9 -9 -3 -16
-12 -16 -19 0 -7 -11 -16 -25 -19 -21 -5 -32 0 -59 29 -30 31 -37 34 -60 25
-19 -7 -26 -6 -27 3 0 9 -2 9 -6 0 -2 -7 -9 -13 -14 -13 -5 0 -23 -13 -39 -30
-32 -33 -45 -38 -36 -14 9 23 -3 37 -20 23 -10 -8 -14 -8 -14 0 0 6 -7 11 -16
11 -8 0 -12 5 -9 10 5 8 11 7 21 -1 19 -16 30 -4 14 16 -7 9 -21 13 -31 10
-14 -5 -19 -1 -19 13 0 15 5 18 25 14 14 -2 22 -9 18 -14 -3 -6 0 -9 8 -6 7 2
14 19 14 37 0 21 7 36 19 43 15 8 16 12 5 19 -10 6 -11 9 -1 9 6 0 12 6 12 14
0 7 9 16 20 19 11 3 20 13 20 24 1 10 11 -1 25 -29 14 -25 37 -56 52 -68z
m757 -11 c-6 -11 -38 -12 -47 -2 -4 3 1 15 10 25 16 18 18 18 30 2 7 -9 10
-21 7 -25z m-1410 -34 c3 -9 0 -15 -8 -15 -7 0 -19 7 -26 15 -10 12 -9 15 8
15 11 0 22 -7 26 -15z m143 -17 c-3 -8 -6 -5 -6 6 -1 11 2 17 5 13 3 -3 4 -12
1 -19z m-107 -68 c14 -34 27 -38 45 -13 12 16 14 16 30 -1 11 -11 28 -16 42
-13 12 2 23 0 23 -4 0 -5 -5 -9 -12 -9 -6 0 -8 -3 -5 -7 4 -3 2 -12 -4 -19 -7
-9 -4 -14 13 -19 25 -8 37 -20 56 -53 12 -21 10 -24 -23 -38 -20 -8 -45 -12
-55 -9 -21 7 -55 54 -45 63 3 4 10 0 16 -8 8 -13 12 -11 29 10 17 22 17 25 3
28 -8 2 -19 -1 -23 -8 -5 -8 -9 -4 -13 10 -3 12 -11 20 -19 19 -25 -4 -75 22
-86 44 -17 37 -22 58 -16 68 8 14 29 -6 44 -41z m918 33 c-2 -10 -12 -18 -22
-18 -11 0 -22 -9 -26 -19 -4 -12 -9 -15 -13 -9 -7 12 36 63 53 63 6 0 10 -8 8
-17z m442 -47 c0 -4 -9 -6 -20 -3 -10 3 -24 -1 -30 -9 -22 -25 -202 -64 -214
-46 -7 12 26 22 74 22 19 1 60 11 90 24 55 23 100 29 100 12z m-905 -16 c3 -5
1 -10 -4 -10 -6 0 -11 5 -11 10 0 6 2 10 4 10 3 0 8 -4 11 -10z m972 -86 c-6
-41 -4 -45 13 -39 21 7 28 -9 10 -20 -6 -3 -8 -16 -5 -28 13 -51 12 -126 -2
-131 -24 -9 -41 4 -35 27 l5 22 -25 -23 c-20 -18 -28 -20 -34 -11 -4 7 -3 14
4 17 7 2 12 10 12 17 0 10 -7 11 -32 3 -18 -6 -41 -15 -51 -20 -12 -6 -23 -5
-32 2 -8 7 -20 8 -27 3 -51 -32 -125 -36 -159 -7 -9 8 -18 11 -22 8 -3 -4 -23
0 -44 9 -59 23 -129 3 -84 -25 18 -11 18 -13 3 -26 -9 -7 -12 -11 -6 -8 7 3
15 -1 18 -10 3 -8 10 -13 16 -9 13 8 53 -33 47 -49 -6 -14 70 -38 79 -25 2 5
16 3 30 -3 20 -10 27 -9 34 3 8 12 12 11 24 -6 9 -11 16 -24 16 -28 0 -5 5 -5
10 -2 8 5 7 11 -1 21 -17 20 -6 26 25 15 17 -7 26 -7 26 -1 0 6 9 10 19 10 11
0 22 4 25 9 13 21 68 21 97 0 32 -22 38 -39 14 -39 -8 0 -15 5 -15 10 0 17
-40 11 -57 -9 -9 -11 -21 -17 -27 -14 -6 4 -5 0 2 -9 16 -20 -2 -35 -23 -18
-10 9 -15 7 -20 -10 -5 -17 -10 -19 -21 -9 -11 9 -18 9 -29 -1 -9 -7 -19 -9
-23 -5 -4 4 -1 10 6 12 19 7 14 22 -8 20 -11 -1 -20 -5 -20 -10 0 -4 -5 -5
-10 -2 -6 4 -8 11 -5 16 3 5 -1 6 -9 3 -19 -7 -21 -31 -3 -37 6 -2 9 -8 5 -12
-5 -5 -16 1 -25 12 -25 28 -59 44 -77 37 -9 -4 -23 -1 -31 6 -8 6 -19 9 -25 5
-7 -5 -9 2 -4 21 5 19 4 25 -5 20 -6 -4 -11 -14 -11 -22 0 -8 -4 -14 -10 -14
-5 0 -10 7 -10 15 0 8 -6 12 -14 9 -11 -4 -13 0 -9 15 3 12 9 21 14 21 5 0 2
11 -7 26 -9 14 -23 23 -30 20 -9 -3 -14 2 -14 14 0 11 -5 20 -11 20 -6 0 -8 9
-4 20 4 13 1 22 -9 26 -26 10 -18 25 9 18 31 -8 33 8 3 29 l-23 16 25 0 c35 1
112 -23 104 -32 -4 -4 6 -5 22 -3 16 3 75 7 130 10 71 4 116 12 150 27 53 23
105 73 124 120 19 44 33 35 27 -17z m-87 4 c0 -14 -5 -18 -15 -14 -10 3 -17
-3 -21 -18 -6 -26 -32 -42 -84 -51 -29 -5 -32 -4 -16 6 14 9 15 13 6 19 -15 9
-44 -15 -36 -29 3 -5 -9 -9 -28 -8 -25 1 -32 5 -28 15 4 12 -4 13 -44 8 -43
-6 -51 -4 -62 14 -10 17 -10 20 6 20 10 0 24 -6 31 -12 10 -11 14 -10 22 5 12
20 45 23 52 5 3 -9 11 -4 25 12 18 22 23 24 42 12 20 -12 24 -11 37 8 10 13
21 19 33 15 10 -3 21 -2 23 2 3 4 17 9 31 9 20 2 26 -3 26 -18z m360 -148 c0
-5 -4 -10 -10 -10 -5 0 -10 5 -10 10 0 6 5 10 10 10 6 0 10 -4 10 -10z m-680
-57 c11 3 18 1 15 -3 -7 -12 32 -33 45 -25 6 3 10 -3 10 -14 0 -12 -4 -21 -10
-21 -5 0 -10 5 -10 11 0 5 -8 9 -17 8 -37 -5 -73 13 -73 35 0 17 -2 18 -10 6
-8 -12 -10 -10 -10 9 0 23 1 24 20 6 11 -10 28 -15 40 -12z m-152 -55 c10 -12
9 -18 -3 -28 -13 -11 -14 -10 -9 3 9 25 -5 40 -23 26 -19 -16 -33 3 -33 45 l0
29 28 -29 c15 -16 33 -37 40 -46z m807 52 c3 -5 -1 -10 -10 -10 -9 0 -13 5
-10 10 3 6 8 10 10 10 2 0 7 -4 10 -10z m-215 -28 c0 -5 -6 -16 -13 -27 -10
-13 -16 -15 -21 -6 -4 6 -2 18 4 26 13 16 30 20 30 7z m-55 -22 c7 -23 -1 -40
-19 -40 -8 0 -11 10 -8 30 5 34 18 39 27 10z m-265 2 c0 -4 -9 -8 -20 -9 -11
-1 -18 2 -15 8 7 11 35 12 35 1z m-244 -50 c-18 -16 -19 -16 -12 1 3 10 6 24
6 30 0 8 4 7 12 -1 10 -9 8 -16 -6 -30z m1416 -218 c1 -180 4 -222 16 -236 8
-10 19 -18 24 -18 8 0 153 -81 227 -128 20 -12 41 -25 48 -28 14 -7 26 -34 15
-34 -5 0 -18 9 -30 20 -62 58 -262 156 -305 149 -6 -1 -24 3 -39 9 -15 6 -35
9 -43 6 -8 -4 -15 -2 -15 3 0 5 -22 17 -50 28 -55 21 -67 41 -20 32 17 -4 30
-2 30 3 0 6 -6 10 -14 10 -15 0 -31 18 -24 26 3 2 32 -8 66 -23 34 -14 65 -23
69 -20 18 18 30 147 27 287 -3 108 0 150 7 143 7 -7 11 -90 11 -229z m518 186
c0 -5 -5 -10 -11 -10 -5 0 -7 5 -4 10 3 6 8 10 11 10 2 0 4 -4 4 -10z m-1470
-10 c0 -5 -4 -10 -10 -10 -5 0 -10 5 -10 10 0 6 5 10 10 10 6 0 10 -4 10 -10z
m-385 -50 c-3 -5 -13 -10 -21 -10 -8 0 -12 5 -9 10 3 6 13 10 21 10 8 0 12 -4
9 -10z m-751 -9 c9 -14 -47 -21 -163 -21 -98 0 -109 -2 -155 -29 -26 -16 -44
-31 -38 -35 6 -3 -10 -27 -36 -55 -64 -67 -69 -74 -64 -90 3 -8 0 -11 -6 -7
-6 3 -31 -4 -56 -16 -25 -12 -49 -19 -52 -15 -7 7 15 45 39 68 9 8 51 49 95
91 93 90 111 97 285 105 67 2 124 7 126 9 7 7 20 4 25 -5z m2486 -36 c-7 -9
-15 -13 -18 -10 -3 2 1 11 8 20 7 9 15 13 18 10 3 -2 -1 -11 -8 -20z m-939
-39 c128 -29 198 -67 255 -136 24 -29 20 -27 -22 11 -28 26 -65 54 -82 63 -58
30 -163 48 -276 48 -59 0 -118 3 -130 8 -18 7 -18 9 -3 9 35 2 6 21 -31 21
-20 0 -32 4 -25 8 15 9 229 -12 314 -32z m-1504 -22 c-3 -3 -12 -4 -19 -1 -8
3 -5 6 6 6 11 1 17 -2 13 -5z m-77 -18 c0 -2 -7 -7 -16 -10 -8 -3 -12 -2 -9 4
6 10 25 14 25 6z m1253 -8 c33 -17 217 -139 217 -144 0 -8 -37 11 -71 38 -20
15 -41 28 -47 28 -6 0 -12 4 -14 8 -4 11 -105 62 -123 62 -8 0 -15 5 -15 10 0
13 26 13 53 -2z m-93 -53 c7 -8 9 -15 6 -15 -4 0 -14 7 -22 15 -9 8 -11 15 -6
15 5 0 15 -7 22 -15z m-1105 -36 c-30 -63 -40 -79 -47 -79 -4 0 7 27 25 59 34
63 49 76 22 20z m2296 -42 c-8 -8 -11 -5 -11 9 0 27 14 41 18 19 2 -9 -1 -22
-7 -28z m39 9 c-4 -19 -5 -37 -2 -40 3 -4 0 -6 -6 -6 -14 0 -14 6 -6 49 4 17
10 31 14 31 4 0 4 -16 0 -34z m-2840 -16 c0 -5 -5 -10 -11 -10 -5 0 -7 5 -4
10 3 6 8 10 11 10 2 0 4 -4 4 -10z m2360 -13 c22 -4 21 -4 -6 -6 -21 -1 -34 5
-38 15 -5 13 -3 14 6 6 7 -5 24 -12 38 -15z m551 -14 c-8 -15 -10 -15 -11 -2
0 17 10 32 18 25 2 -3 -1 -13 -7 -23z m-27 -8 c-4 -8 -9 -13 -13 -11 -3 2 -7
-12 -8 -32 -2 -29 -1 -34 8 -22 9 12 10 11 4 -5 -4 -11 -14 -40 -23 -65 l-16
-45 -7 35 c-17 90 -18 109 -3 103 8 -3 14 1 14 10 0 9 10 23 22 31 28 20 29
20 22 1z m16 -24 c0 -6 -4 -13 -10 -16 -5 -3 -10 1 -10 9 0 9 5 16 10 16 6 0
10 -4 10 -9z m-2042 -84 c6 3 12 0 12 -6 0 -6 7 -11 15 -11 10 0 15 -10 15
-31 0 -19 4 -28 11 -24 6 4 8 13 5 21 -6 16 10 19 19 3 4 -5 1 -18 -7 -27 -7
-9 -19 -27 -26 -39 -10 -19 -10 -23 3 -23 8 0 26 -12 40 -27 l25 -28 -22 -7
c-18 -4 -19 -6 -5 -7 10 -1 15 -6 12 -11 -4 -7 -17 -4 -36 7 -35 21 -37 33 -6
34 20 0 21 1 2 8 -13 5 -26 2 -39 -11 -22 -20 -57 -21 -64 0 -2 7 2 10 11 6 8
-3 18 -1 21 4 3 5 -10 13 -29 16 -19 4 -35 11 -35 16 0 5 -8 6 -17 3 -12 -5
-15 -2 -10 10 4 12 2 14 -10 10 -12 -5 -14 -1 -9 15 4 12 4 27 -1 34 -12 21
-9 42 7 50 23 10 52 9 45 -2 -4 -6 6 -10 22 -10 27 -1 27 -1 9 -15 -11 -8 -16
-15 -10 -15 5 0 18 7 29 15 19 15 19 15 -3 31 -12 8 -19 20 -16 26 5 7 11 6
18 -4 6 -8 17 -13 24 -11z m1682 -6 c0 -4 -11 -6 -25 -3 -14 2 -25 6 -25 8 0
2 11 4 25 4 14 0 25 -4 25 -9z m-1590 -101 c0 -5 -7 -7 -15 -4 -8 4 -15 8 -15
10 0 2 7 4 15 4 8 0 15 -4 15 -10z m-476 -56 c4 -10 13 -13 25 -9 13 4 24 -1
35 -17 9 -12 16 -17 16 -9 0 7 6 11 13 8 6 -2 11 -11 9 -18 -3 -11 -1 -11 8
-2 8 7 22 8 39 4 14 -5 31 -6 38 -4 6 2 19 -8 29 -22 9 -14 23 -24 30 -21 9 3
14 -2 14 -13 0 -21 27 -47 38 -37 4 4 0 12 -9 16 -17 10 -15 60 3 60 5 0 8 -5
6 -12 -7 -20 19 -82 39 -93 10 -5 21 -14 24 -18 3 -5 9 -1 13 9 6 16 8 15 29
-5 24 -22 43 -29 32 -11 -8 13 14 42 26 34 5 -3 9 2 9 11 0 9 5 13 10 10 6 -4
8 -15 5 -26 -11 -32 15 -21 30 14 11 24 14 27 15 12 l1 -20 9 20 c7 18 8 18
15 -8 6 -22 10 -25 21 -16 11 9 14 8 14 -2 0 -11 2 -11 10 1 5 8 10 10 10 3 0
-6 9 -9 20 -6 11 3 27 0 35 -7 8 -6 19 -9 24 -5 6 3 27 -2 47 -11 20 -10 44
-17 53 -17 9 0 22 -7 29 -16 12 -14 13 -14 8 3 -6 16 -2 18 31 11 20 -4 43
-14 50 -23 10 -14 14 -15 22 -3 7 11 10 9 16 -8 3 -11 11 -21 16 -21 6 0 6 -7
-1 -19 -13 -25 -13 -41 0 -41 25 0 46 -37 42 -73 -2 -20 -8 -37 -13 -37 -5 0
-9 -5 -9 -11 0 -5 4 -7 10 -4 12 7 -65 -129 -98 -172 -13 -18 -28 -30 -33 -27
-5 3 -9 0 -9 -6 0 -6 -10 -15 -22 -20 -23 -9 -23 -9 -1 -9 12 -1 24 5 26 12 4
9 6 9 6 0 1 -7 -9 -24 -21 -38 -21 -24 -29 -26 -108 -27 -47 0 -97 4 -112 10
-17 7 -28 8 -28 2 0 -6 6 -10 13 -10 6 0 25 -7 42 -16 16 -8 38 -13 48 -10 20
5 67 -12 67 -25 0 -4 -37 -38 -82 -77 -46 -39 -96 -84 -112 -101 -17 -17 -33
-31 -38 -31 -10 0 -53 67 -63 98 -4 13 -16 33 -26 43 -19 19 -17 45 2 34 15
-10 11 5 -10 33 -10 15 -22 43 -26 62 -12 59 -35 122 -55 151 -11 15 -20 29
-20 32 0 3 -28 48 -62 101 -85 129 -108 165 -131 206 l-19 35 23 -26 c31 -35
159 -185 181 -212 10 -12 18 -17 18 -11 0 7 -26 41 -58 75 -31 35 -68 80 -82
99 -13 19 -30 41 -38 49 -7 7 -39 48 -72 90 -33 42 -73 93 -91 114 -21 25 -26
37 -16 37 8 0 18 -7 21 -16z m-734 -10 c0 -2 -13 -4 -30 -4 -16 0 -30 4 -30 8
0 5 14 7 30 4 17 -2 30 -6 30 -8z m-83 0 c-3 -3 -12 -4 -19 -1 -8 3 -5 6 6 6
11 1 17 -2 13 -5z m1363 -44 c0 -5 -5 -10 -11 -10 -5 0 -7 5 -4 10 3 6 8 10
11 10 2 0 4 -4 4 -10z m-180 -15 c0 -8 -2 -15 -4 -15 -2 0 -6 7 -10 15 -3 8
-1 15 4 15 6 0 10 -7 10 -15z m40 -25 c0 -5 -5 -10 -11 -10 -5 0 -7 5 -4 10 3
6 8 10 11 10 2 0 4 -4 4 -10z m-70 -53 c0 -5 -4 -5 -10 -2 -5 3 -10 14 -10 23
0 15 2 15 10 2 5 -8 10 -19 10 -23z m80 -3 c0 -8 -4 -12 -10 -9 -5 3 -10 10
-10 16 0 5 5 9 10 9 6 0 10 -7 10 -16z m727 -76 c-3 -8 -6 -5 -6 6 -1 11 2 17
5 13 3 -3 4 -12 1 -19z m-117 -114 c0 -8 -4 -12 -10 -9 -5 3 -10 10 -10 16 0
5 5 9 10 9 6 0 10 -7 10 -16z m-592 -576 c41 -62 44 -68 33 -68 -11 0 -81 88
-81 101 0 21 21 6 48 -33z m308 -223 c7 -47 3 -57 -20 -61 -15 -2 -32 78 -21
96 15 25 34 8 41 -35z"/>
<path d="M1387 3133 c-4 -3 -7 -11 -7 -17 0 -6 5 -5 12 2 6 6 9 14 7 17 -3 3
-9 2 -12 -2z"/>
<path d="M1675 3020 c3 -5 8 -10 11 -10 2 0 4 5 4 10 0 6 -5 10 -11 10 -5 0
-7 -4 -4 -10z"/>
<path d="M1515 2420 c-3 -5 -1 -10 4 -10 6 0 11 5 11 10 0 6 -2 10 -4 10 -3 0
-8 -4 -11 -10z"/>
<path d="M2318 1953 c7 -3 16 -2 19 1 4 3 -2 6 -13 5 -11 0 -14 -3 -6 -6z"/>
<path d="M2255 2221 c-10 -18 17 -23 33 -7 15 15 15 16 -5 16 -12 0 -24 -4
-28 -9z"/>
<path d="M3205 1520 c-11 -5 -15 -9 -8 -9 6 -1 20 -4 30 -7 15 -5 16 -4 3 6
-13 10 -11 11 8 7 12 -3 20 -1 16 4 -6 11 -22 11 -49 -1z"/>
<path d="M1505 1370 c-3 -6 1 -7 9 -4 18 7 21 14 7 14 -6 0 -13 -4 -16 -10z"/>
<path d="M1570 1344 l0 -32 35 16 c19 9 35 19 35 23 0 16 -21 20 -36 8 -13
-10 -17 -10 -25 2 -6 10 -9 5 -9 -17z"/>
<path d="M1681 1094 c0 -11 3 -14 6 -6 3 7 2 16 -1 19 -3 4 -6 -2 -5 -13z"/>
<path d="M2070 1062 c0 -5 7 -15 15 -22 8 -7 15 -9 15 -6 0 4 -7 14 -15 22 -8
9 -15 11 -15 6z"/>
<path d="M1686 691 c-8 -13 46 -21 64 -10 11 8 10 9 -7 4 -12 -3 -24 -1 -28 5
-8 12 -22 13 -29 1z"/>
<path d="M1850 660 l-25 -20 29 10 c16 6 36 8 44 5 8 -3 12 0 10 7 -7 21 -31
19 -58 -2z"/>
<path d="M1962 634 c-4 -7 -20 -14 -37 -17 -22 -3 -19 -4 16 -6 41 -1 69 11
69 30 0 12 -41 6 -48 -7z"/>
<path d="M3828 3010 c-55 -29 -93 -62 -52 -46 10 4 48 17 84 28 36 11 74 27
85 34 40 29 -56 15 -117 -16z"/>
<path d="M3363 3013 c15 -2 39 -2 55 0 15 2 2 4 -28 4 -30 0 -43 -2 -27 -4z"/>
<path d="M4000 2974 c-51 -50 -48 -53 15 -21 33 16 45 28 45 45 0 30 -8 27
-60 -24z"/>
<path d="M4026 2922 c-2 -4 4 -13 15 -20 16 -11 19 -9 19 8 0 19 -24 28 -34
12z"/>
<path d="M158 2903 c6 -2 18 -2 25 0 6 3 1 5 -13 5 -14 0 -19 -2 -12 -5z"/>
<path d="M3755 2713 c-53 -6 -103 -23 -108 -37 -4 -11 10 -14 71 -12 66 1 83
-3 122 -25 25 -15 60 -35 77 -45 18 -11 33 -22 33 -26 0 -5 8 -8 18 -9 9 0 12
-3 6 -5 -6 -3 -35 4 -63 16 -28 11 -65 20 -81 20 -16 0 -32 5 -35 10 -8 13
-26 13 -45 0 -13 -9 -13 -11 0 -19 8 -6 11 -14 6 -18 -4 -4 -13 0 -20 10 -14
18 -46 24 -46 7 0 -5 5 -10 11 -10 8 0 8 -4 0 -14 -14 -17 -5 -44 17 -48 14
-3 12 -7 -8 -25 -17 -17 -27 -20 -36 -12 -21 17 -83 -10 -91 -39 -4 -16 -8
-20 -13 -12 -4 7 -13 11 -19 9 -17 -6 47 -71 100 -102 58 -34 144 -64 225 -78
35 -6 64 -16 64 -21 0 -6 -8 -7 -17 -3 -10 4 -25 7 -33 7 -33 0 -226 50 -288
74 -37 15 -95 42 -129 61 l-63 35 0 -25 c0 -13 6 -30 14 -36 16 -14 56 -86 56
-101 0 -6 -7 -10 -15 -10 -8 0 -15 -4 -15 -10 0 -5 7 -10 15 -10 8 0 15 -4 15
-10 0 -5 -7 -10 -15 -10 -8 0 -15 -4 -15 -10 0 -5 5 -10 11 -10 6 0 9 -9 6
-20 -8 -32 64 -105 129 -129 58 -22 127 -27 166 -12 13 5 66 11 117 15 52 4
96 8 98 10 6 5 -14 51 -21 49 -3 -2 -29 -3 -58 -3 -93 0 -38 19 64 22 l98 3 0
92 c0 64 -4 93 -12 96 -10 4 -10 6 0 6 9 1 12 43 12 175 l0 174 -42 15 c-40
14 -165 44 -213 51 -11 1 -33 1 -50 -1z m30 -173 c-3 -5 -14 -10 -23 -9 -14 0
-13 2 3 9 27 11 27 11 20 0z m-146 -99 c-27 -22 -32 -21 -23 3 3 9 15 16 26
16 19 0 19 -1 -3 -19z m165 4 c-4 -8 -14 -15 -23 -15 -14 1 -13 3 3 15 25 19
27 19 20 0z m16 -349 c0 -2 -7 -7 -16 -10 -8 -3 -12 -2 -9 4 6 10 25 14 25 6z"/>
<path d="M3472 2694 c-25 -19 5 -28 33 -10 14 9 25 18 25 19 0 8 -44 1 -58 -9z"/>
<path d="M3670 2490 c0 -5 5 -10 10 -10 6 0 10 5 10 10 0 6 -4 10 -10 10 -5 0
-10 -4 -10 -10z"/>
<path d="M2700 2385 c-19 -22 -8 -25 13 -3 9 10 13 18 8 18 -5 0 -14 -7 -21
-15z"/>
<path d="M3980 2070 c0 -5 5 -10 11 -10 5 0 7 5 4 10 -3 6 -8 10 -11 10 -2 0
-4 -4 -4 -10z"/>
<path d="M3899 1873 c-13 -15 -12 -15 9 -4 23 12 28 21 13 21 -5 0 -15 -7 -22
-17z"/>
<path d="M54 1278 c-26 -18 -50 -40 -52 -48 -3 -9 5 -6 21 9 15 13 43 34 64
47 21 13 33 24 27 24 -7 0 -33 -15 -60 -32z"/>
<path d="M174 1245 c4 -11 36 -8 50 6 6 5 -4 8 -22 6 -18 -1 -30 -6 -28 -12z"/>
<path d="M2351 934 c0 -11 3 -14 6 -6 3 7 2 16 -1 19 -3 4 -6 -2 -5 -13z"/>
<path d="M3082 591 c-11 -7 -8 -17 13 -50 29 -44 32 -45 54 -32 10 7 9 16 -10
50 -25 42 -34 47 -57 32z"/>
<path d="M3450 496 c0 -11 39 -94 47 -98 4 -2 23 -2 42 1 l34 6 -62 48 c-33
27 -61 46 -61 43z"/>
<path d="M3186 411 c-7 -10 10 -24 32 -27 19 -3 10 30 -10 34 -9 2 -19 -1 -22
-7z"/>
<path d="M2753 306 c-23 -8 -59 -24 -80 -37 -51 -32 -102 -52 -135 -52 -16 0
-28 -4 -28 -8 0 -5 4 -9 8 -9 12 0 8 -45 -5 -62 -7 -8 -9 -18 -5 -23 4 -4 -3
-4 -16 -1 -20 7 -21 5 -12 -19 5 -14 10 -40 10 -57 0 -23 -4 -29 -16 -24 -9 3
-28 9 -42 12 -50 11 -132 49 -132 62 0 8 16 12 45 12 34 0 47 5 55 19 14 28
13 34 -7 27 -9 -4 -19 -2 -22 3 -3 5 -38 12 -77 16 -82 8 -89 2 -78 -72 5 -38
12 -47 48 -68 41 -24 45 -24 299 -25 181 0 256 3 252 10 -4 6 -4 22 -1 36 6
21 11 24 29 18 19 -6 20 -5 8 10 -10 12 -17 14 -27 5 -8 -6 -21 -8 -30 -5 -11
4 -22 -1 -31 -14 -14 -20 -60 -29 -48 -10 3 6 1 10 -4 10 -6 0 -11 -5 -11 -11
0 -8 -4 -8 -15 1 -8 6 -23 9 -35 5 -12 -4 -20 -2 -20 6 0 8 -4 8 -15 -1 -28
-23 -30 0 -5 46 37 69 106 145 163 182 54 34 49 39 -20 18z m-483 -236 c0 -5
-4 -10 -10 -10 -5 0 -10 5 -10 10 0 6 5 10 10 10 6 0 10 -4 10 -10z"/>
<path d="M3989 216 c-2 -2 -56 -6 -119 -10 -366 -22 -411 -26 -616 -55 -164
-24 -329 -78 -403 -133 -23 -17 0 -18 593 -18 l616 0 0 110 0 110 -33 0 c-19
0 -36 -2 -38 -4z"/>
<path d="M2088 173 c-10 -2 -21 -17 -24 -31 -3 -15 -8 -35 -11 -46 -3 -10 1
-22 8 -27 9 -6 10 -12 4 -16 -5 -5 -11 -18 -13 -30 -3 -22 -1 -23 77 -23 78 0
81 1 81 23 0 13 -7 32 -15 43 -17 22 -20 38 -5 29 18 -11 -2 29 -28 58 -25 26
-38 30 -74 20z m68 -88 c21 -50 18 -58 -13 -50 -36 9 -35 7 -28 49 9 45 22 46
41 1z"/>
</g>
</svg>
